<?xml version="1.0" encoding="UTF-8" standalone="no"?>
<svg
   version="1.0"
   width="1028pt"
   height="255pt"
   viewBox="0 0 1028 255"
   preserveAspectRatio="xMidYMid"
   id="svg1"
   sodipodi:docname="logo_1.svg"
   inkscape:version="1.4.2 (ebf0e940, 2025-05-08)"
   xmlns:inkscape="http://www.inkscape.org/namespaces/inkscape"
   xmlns:sodipodi="http://sodipodi.sourceforge.net/DTD/sodipodi-0.dtd"
   xmlns="http://www.w3.org/2000/svg"
   xmlns:svg="http://www.w3.org/2000/svg">
  <defs
     id="defs1" />
  <sodipodi:namedview
     id="namedview1"
     pagecolor="#ffffff"
     bordercolor="#000000"
     borderopacity="0.25"
     inkscape:showpageshadow="2"
     inkscape:pageopacity="0.0"
     inkscape:pagecheckerboard="0"
     inkscape:deskcolor="#d1d1d1"
     inkscape:document-units="pt"
     inkscape:zoom="0.69"
     inkscape:cx="1057.971"
     inkscape:cy="542.02899"
     inkscape:window-width="2896"
     inkscape:window-height="1057"
     inkscape:window-x="0"
     inkscape:window-y="98"
     inkscape:window-maximized="0"
     inkscape:current-layer="svg1" />
  <g
     transform="matrix(0.02906351,0,0,-0.02906351,8.841215,242.9953)"
     fill="#000000"
     stroke="none"
     id="g1"
     style="fill:#f57694;fill-opacity:1">
    <path
       d="m 4670,6817 c 3,-3 61,-45 130,-93 189,-132 319,-242 490,-413 377,-378 685,-850 908,-1391 62,-152 93,-245 84,-255 -9,-9 -22,-6 -22,6 0,19 -101,243 -157,349 -348,654 -870,1163 -1451,1416 -394,172 -829,236 -1222,179 -108,-16 -324,-65 -317,-72 3,-2 50,5 106,16 243,51 535,64 758,36 227,-29 505,-109 707,-204 518,-243 982,-680 1326,-1251 67,-110 105,-188 97,-197 -3,-2 -43,53 -90,124 -274,415 -616,713 -1012,878 -241,101 -592,159 -820,135 -309,-32 -494,-84 -748,-211 -543,-272 -971,-815 -1143,-1448 -102,-380 -121,-788 -53,-1184 152,-895 766,-1680 1509,-1931 284,-95 606,-116 880,-57 209,46 443,145 625,266 229,152 477,406 655,670 63,95 190,329 240,443 47,110 67,142 87,142 24,0 9,-83 -46,-249 -142,-427 -348,-832 -561,-1099 -222,-281 -500,-511 -840,-698 -63,-35 -112,-64 -109,-64 4,0 49,20 100,44 114,52 285,153 397,233 187,134 415,361 547,544 197,274 394,690 503,1065 22,76 48,156 57,178 16,37 17,38 53,31 20,-3 44,-13 52,-21 13,-13 13,-18 -4,-47 -65,-111 -80,-152 -84,-230 -4,-72 -2,-82 30,-150 42,-87 133,-189 190,-212 51,-20 173,-21 219,-2 19,8 57,39 85,69 132,140 153,308 59,470 -25,43 -45,82 -45,88 0,13 67,43 79,36 14,-9 28,-52 70,-211 210,-795 624,-1388 1221,-1750 109,-66 387,-205 410,-205 8,0 -48,33 -125,73 -551,288 -887,613 -1177,1139 -122,221 -257,565 -328,837 -26,97 -26,121 0,121 23,0 34,-20 90,-161 49,-123 169,-348 250,-469 288,-428 695,-740 1125,-863 184,-52 256,-62 470,-61 233,0 326,14 510,75 703,234 1237,870 1444,1719 67,271 76,355 75,700 0,296 -2,324 -27,460 -90,496 -291,929 -595,1280 -149,172 -300,300 -482,410 -225,136 -418,198 -722,230 -130,14 -291,2 -477,-36 -295,-59 -613,-221 -889,-453 -168,-141 -359,-342 -477,-504 -27,-37 -51,-63 -53,-58 -2,6 27,59 63,118 129,206 273,381 477,578 441,425 886,686 1373,806 294,72 574,78 875,18 149,-30 163,-31 95,-8 -195,65 -560,91 -780,54 -217,-36 -363,-75 -533,-144 -414,-166 -765,-412 -1143,-797 -198,-203 -353,-417 -473,-654 -69,-134 -136,-286 -136,-306 0,-19 -29,-39 -41,-27 -23,23 88,317 216,573 289,575 671,1039 1161,1407 65,49 145,106 177,126 69,46 75,59 10,22 -333,-191 -688,-514 -969,-880 -250,-327 -479,-753 -590,-1102 -51,-160 -57,-166 -125,-120 -49,33 -48,60 6,164 73,142 82,255 28,355 -59,107 -191,160 -348,137 -79,-11 -128,-35 -176,-86 -60,-62 -74,-98 -74,-188 0,-77 2,-86 53,-189 70,-144 69,-179 -8,-210 -42,-17 -60,-14 -60,8 0,17 -110,306 -155,406 -143,319 -355,667 -571,940 -224,282 -531,562 -787,719 -65,40 -136,78 -127,68 z m -195,-767 c 389,-43 738,-196 1053,-463 251,-212 492,-531 638,-844 39,-82 39,-83 20,-83 -8,0 -40,48 -71,108 -76,143 -234,352 -370,488 -443,445 -967,599 -1531,449 -461,-122 -926,-521 -1168,-1001 -114,-227 -190,-473 -221,-717 -42,-326 -3,-720 99,-1012 159,-455 466,-835 844,-1042 160,-89 378,-160 559,-184 134,-17 430,-6 556,21 312,67 641,258 845,492 96,109 241,318 291,416 33,64 55,82 102,82 41,0 41,0 35,-32 -10,-50 -146,-322 -222,-444 -173,-278 -401,-528 -637,-696 -307,-220 -597,-323 -942,-335 -441,-15 -842,132 -1217,446 -231,194 -485,517 -627,798 -117,234 -213,537 -258,824 -25,161 -26,616 0,772 90,557 316,1011 685,1375 110,109 277,239 404,315 343,205 772,307 1133,267 z m 4811,-20 c 364,-69 659,-232 934,-516 676,-698 892,-1738 568,-2734 -113,-349 -317,-694 -558,-944 -298,-309 -636,-502 -1012,-578 -147,-29 -413,-32 -558,-5 -268,49 -526,160 -760,325 -116,82 -370,332 -460,454 -95,127 -185,274 -267,438 -72,143 -118,263 -107,281 9,16 70,10 86,-8 8,-10 40,-63 71,-118 267,-480 656,-776 1167,-892 101,-23 138,-27 305,-27 203,-1 275,9 452,60 434,126 832,514 1033,1008 180,444 228,946 134,1416 -32,160 -54,236 -116,390 -188,476 -511,845 -903,1035 -140,67 -231,100 -375,133 -103,23 -136,26 -305,26 -187,0 -193,-1 -330,-37 -317,-83 -632,-290 -866,-567 -69,-83 -179,-243 -244,-355 -31,-55 -59,-102 -62,-105 -18,-17 19,62 79,171 153,278 381,535 671,761 286,220 646,373 967,408 114,13 332,3 456,-20 z m -453,-295 c 215,-37 447,-130 632,-252 119,-79 326,-281 426,-416 210,-282 349,-616 410,-987 31,-182 33,-537 6,-708 -37,-228 -110,-483 -188,-650 -411,-890 -1292,-1228 -2122,-816 -280,139 -471,308 -651,577 -73,110 -139,232 -134,251 7,31 66,-8 125,-84 260,-330 613,-530 1005,-571 57,-6 141,-7 188,-4 553,43 982,385 1183,945 149,415 157,916 21,1328 -69,209 -212,463 -343,608 -183,204 -453,358 -736,420 -107,23 -321,23 -430,-1 -254,-54 -486,-169 -701,-345 -74,-61 -205,-204 -267,-292 -32,-45 -48,-59 -74,-64 -19,-4 -37,-4 -40,0 -9,9 18,63 94,191 263,438 625,727 1058,846 145,39 387,50 538,24 z m -3962,-26 c 454,-81 879,-404 1193,-904 85,-135 87,-152 23,-140 -29,6 -46,20 -92,81 -73,95 -262,276 -367,352 -184,132 -354,209 -560,254 -137,29 -372,31 -498,4 -399,-85 -705,-294 -937,-639 -140,-208 -237,-470 -268,-724 -17,-137 -20,-412 -4,-533 25,-201 104,-444 203,-623 200,-361 511,-605 891,-700 273,-69 458,-62 720,24 260,86 445,219 706,507 51,55 82,82 97,82 14,0 22,-6 22,-18 0,-27 -93,-183 -178,-302 -250,-344 -558,-544 -982,-636 -131,-29 -468,-27 -605,4 -460,101 -822,361 -1083,778 -221,354 -326,761 -309,1199 19,459 155,856 415,1209 94,128 319,351 442,438 113,80 311,184 431,226 250,88 485,107 740,61 z m 3684,-349 c 256,-29 529,-156 723,-335 166,-154 300,-358 391,-595 90,-235 125,-433 125,-710 0,-226 -17,-363 -68,-552 -147,-534 -495,-900 -978,-1028 -104,-28 -346,-38 -470,-21 -297,42 -588,196 -807,427 -53,56 -106,120 -119,143 -22,39 -23,41 -4,41 11,0 40,-17 65,-37 148,-124 189,-155 248,-191 205,-125 470,-190 659,-164 241,35 455,140 636,314 207,199 340,445 405,748 20,91 23,135 23,330 0,198 -2,238 -22,330 -31,139 -63,233 -122,358 -65,136 -121,219 -220,325 -284,303 -669,423 -1064,332 -201,-47 -384,-149 -554,-310 -69,-65 -132,-95 -132,-63 0,16 133,174 199,236 278,262 627,419 951,430 25,1 86,-3 135,-8 z m -3474,-39 c 312,-70 594,-255 877,-573 52,-59 54,-72 6,-65 -23,4 -49,20 -77,48 -48,48 -153,127 -249,188 -87,55 -231,114 -359,148 -90,23 -124,27 -254,27 -127,0 -167,-4 -262,-26 -137,-33 -249,-80 -356,-152 -307,-205 -499,-494 -579,-872 -20,-94 -23,-137 -22,-314 0,-225 13,-311 74,-498 91,-282 284,-540 520,-698 122,-81 226,-128 360,-161 193,-48 328,-41 532,27 154,52 276,120 456,254 51,38 96,66 99,62 23,-22 -117,-181 -255,-290 -250,-197 -517,-297 -797,-299 -220,0 -378,36 -590,138 -343,163 -605,479 -740,890 -65,196 -80,307 -79,570 1,178 5,242 22,336 43,236 151,497 283,684 79,111 249,284 349,354 166,116 394,209 581,236 134,19 342,12 460,-14 z m 1652,6 c 24,-10 12,-12 -85,-12 -119,0 -114,1 -214,-60 l -29,-18 25,26 c 40,42 134,76 210,76 36,0 78,-5 93,-12 z m 123,-69 19,-21 -27,18 c -29,18 -34,25 -20,25 5,0 17,-10 28,-22 z m 1469,-188 c 237,-27 468,-141 646,-321 265,-267 404,-659 386,-1088 -26,-629 -384,-1117 -933,-1273 -108,-30 -293,-30 -409,0 -120,32 -228,77 -329,137 -91,53 -206,147 -206,167 0,19 122,2 189,-27 384,-162 794,-57 1081,276 76,89 119,157 166,268 159,367 124,849 -84,1181 -152,241 -381,409 -627,461 -82,17 -122,20 -225,16 -146,-6 -211,-22 -335,-82 -79,-37 -232,-81 -244,-69 -7,7 60,72 123,120 175,132 364,209 572,233 100,12 129,12 229,1 z m -3180,-10 c 228,-26 498,-149 670,-304 46,-42 48,-45 25,-45 -39,-1 -94,17 -223,71 -214,90 -377,106 -587,59 -353,-79 -649,-359 -778,-736 -60,-175 -78,-409 -47,-602 30,-184 123,-396 237,-540 203,-256 533,-402 825,-363 79,10 223,53 354,105 43,17 49,17 79,3 l 32,-15 -34,-32 c -49,-47 -151,-112 -253,-164 -192,-96 -417,-143 -569,-119 -93,14 -221,55 -316,100 -290,136 -544,437 -653,773 -57,173 -72,278 -71,494 0,170 4,214 22,295 68,291 174,491 357,676 115,116 207,185 320,239 208,100 385,130 610,105 z m 298,-245 c 111,-27 220,-73 213,-89 -3,-6 -10,-28 -17,-50 -7,-21 -18,-40 -25,-43 -7,-3 -56,5 -108,17 -81,19 -116,22 -233,18 -121,-4 -148,-9 -219,-35 -275,-100 -471,-319 -549,-615 -142,-537 102,-1055 565,-1199 63,-20 95,-24 200,-23 107,1 138,5 215,29 142,44 131,45 144,-15 6,-28 11,-53 11,-55 0,-9 -116,-63 -180,-83 -163,-54 -308,-65 -448,-36 -184,38 -331,121 -482,273 -153,155 -245,327 -293,551 -25,116 -29,346 -8,460 64,358 284,667 581,815 114,57 202,84 350,109 50,9 188,-5 283,-29 z m 2812,0 c 338,-100 602,-392 694,-765 42,-171 53,-363 30,-526 -67,-484 -415,-849 -864,-906 -87,-11 -106,-10 -217,10 -171,32 -319,96 -278,122 7,4 16,25 20,46 4,27 11,38 21,36 159,-37 210,-44 314,-39 207,9 379,88 520,238 81,87 125,157 172,275 44,112 61,188 72,328 11,130 1,265 -28,378 -89,342 -279,555 -581,649 -116,37 -312,29 -461,-17 -13,-3 -21,8 -34,48 -20,61 -18,64 74,99 173,65 377,74 546,24 z M 5772,4700 c 89,-19 344,-52 458,-59 l 115,-8 -132,-2 c -72,0 -167,4 -210,10 -87,12 -311,64 -321,74 -4,4 4,4 18,1 14,-3 46,-10 72,-16 z m 1796,15 c -3,-3 -48,-15 -99,-25 -52,-11 -125,-26 -164,-35 -38,-8 -133,-17 -210,-20 l -140,-4 95,13 c 52,8 158,21 235,30 77,9 163,23 190,31 52,14 102,19 93,10 z m 504,-69 c 159,-30 313,-122 421,-251 71,-84 157,-256 187,-370 95,-372 0,-778 -238,-1010 -149,-146 -397,-228 -590,-196 -87,15 -202,48 -202,59 0,4 14,72 31,152 40,190 51,407 24,464 -38,80 -113,87 -225,21 -86,-50 -143,-63 -207,-46 -108,29 -193,147 -193,268 0,78 15,116 67,169 70,72 190,95 298,59 28,-9 61,-27 75,-40 38,-35 65,-45 99,-39 66,13 111,127 111,277 0,116 -12,195 -65,425 -4,18 0,25 22,33 100,38 262,48 385,25 z m -2542,-26 c 41,-12 76,-23 78,-25 2,-1 -6,-39 -18,-84 -30,-119 -50,-263 -50,-367 0,-83 3,-98 31,-150 17,-33 42,-72 57,-87 33,-35 63,-32 131,13 97,65 198,75 301,32 57,-24 69,-34 98,-82 26,-44 32,-65 32,-112 0,-148 -101,-276 -234,-294 -53,-8 -102,7 -176,52 -111,67 -170,69 -217,8 -23,-31 -27,-47 -31,-124 -5,-93 22,-291 57,-427 14,-55 16,-75 7,-82 -6,-5 -52,-22 -101,-38 -80,-24 -105,-28 -225,-27 -101,0 -150,4 -195,18 -379,114 -620,519 -576,969 15,157 42,253 107,386 51,102 65,123 153,210 129,129 243,194 400,227 93,19 274,11 371,-16 z m 1407,24 c -3,-3 -12,-4 -19,-1 -8,3 -5,6 6,6 11,1 17,-2 13,-5 z M 5707,3527 c 4,-7 0,-8 -11,-4 -10,4 -30,7 -44,7 -18,0 -23,3 -14,9 16,10 60,2 69,-12 z m 1919,5 c -2,-4 -21,-9 -42,-10 -20,-2 -42,-5 -48,-8 -6,-3 -2,2 8,10 20,16 91,23 82,8 z m -226,-92 c -8,-5 -37,-9 -65,-8 l -50,1 45,7 c 73,11 88,11 70,0 z m -1483,-6 c -3,-3 -12,-4 -19,-1 -8,3 -5,6 6,6 11,1 17,-2 13,-5 z"
       id="path1"
       style="fill:#f57694;fill-opacity:1" />
  </g>
  <path
     style="font-weight:100;font-size:140px;font-family:Skia;-inkscape-font-specification:'Skia Thin';opacity:0.8;fill:#f57694;stroke-width:2.025"
     d="m 461.52301,115.86234 c 0,6.65364 -2.16471,12.66926 -6.49414,18.04687 -4.28385,5.37761 -10.02604,9.02344 -17.22656,10.9375 -3.09896,0.82031 -6.49414,1.41276 -10.18555,1.77734 -3.64583,0.36459 -7.72461,0.54688 -12.23633,0.54688 l 0.13672,28.91601 h -11.2793 c 0.0456,-2.73437 0.11396,-7.79297 0.20508,-15.17578 0.0912,-7.42838 0.13672,-18.88997 0.13672,-34.38476 0,-4.92187 -0.0228,-10.96029 -0.0684,-18.11524 -0.0456,-7.15495 -0.13675,-15.107421 -0.27344,-23.857421 1.95964,-0.04557 3.8737,-0.06836 5.74219,-0.06836 h 4.64844 c 7.88411,0 14.58333,0.501302 20.09766,1.503906 5.55989,1.002605 10.23112,2.711589 14.01367,5.126954 4.14713,2.597652 7.31445,5.992842 9.50195,10.185551 2.1875,4.14713 3.28125,9.00065 3.28125,14.56055 z m -11.68945,0 c 0,-4.69401 -1.07096,-8.68165 -3.21289,-11.9629 -2.14193,-3.32682 -5.42318,-5.947269 -9.84375,-7.861329 -2.73438,-1.18489 -5.69662,-1.91406 -8.88672,-2.1875 -3.19011,-0.31901 -6.47136,-0.478513 -9.84375,-0.478513 h -1.23047 -1.29883 c 0,0.501303 -0.0456,3.919273 -0.13672,10.253912 -0.0911,6.33463 -0.13672,11.34765 -0.13672,15.03906 v 11.96289 c 0.0456,4.60287 0.0684,7.22331 0.0684,7.86133 h 1.43555 1.29883 c 3.05339,0 6.28906,-0.20508 9.70703,-0.61524 3.46354,-0.41015 6.42578,-1.16211 8.88672,-2.25586 4.28385,-1.82291 7.54232,-4.35221 9.77539,-7.58789 2.27865,-3.23567 3.41797,-7.29166 3.41797,-12.16796 z m 102.40234,54.75585 -8.54492,7.04102 c -1.00261,-1.04818 -4.55729,-4.99024 -10.66406,-11.82617 -6.10677,-6.88151 -15.51758,-17.59115 -28.23243,-32.12891 l 0.0684,-0.61523 c 1.73177,-0.45573 4.03321,-1.43555 6.9043,-2.93946 2.87109,-1.54947 5.28646,-3.21288 7.24609,-4.99023 1.6862,-1.54948 3.14453,-3.46354 4.375,-5.74219 1.27605,-2.27865 1.91407,-5.33203 1.91407,-9.16015 0,-3.50912 -0.93425,-6.51693 -2.80274,-9.02344 -1.82291,-2.552089 -4.35221,-4.420579 -7.58789,-5.605469 -2.64323,-1.00261 -5.42317,-1.59506 -8.33984,-1.77735 -2.91667,-0.22786 -5.60547,-0.34179 -8.06641,-0.34179 -1.64063,0 -2.89388,0.0228 -3.75976,0.0684 h -1.91407 c -0.0911,8.658849 -0.1595,16.292319 -0.20507,22.900389 v 14.01367 c 0,6.24349 0.0228,14.72006 0.0684,25.42969 0.0911,10.70963 0.1595,17.43164 0.20507,20.16601 h -11.27929 c 0.0456,-2.73437 0.11396,-8.02083 0.20507,-15.85937 0.0911,-7.88411 0.13672,-17.68229 0.13672,-29.39453 v -12.64649 c 0,-6.15234 -0.11393,-17.36328 -0.34179,-33.63281 0.45573,0 2.73437,-0.04557 6.83593,-0.136719 4.10157,-0.09115 7.88412,-0.136719 11.34766,-0.136719 3.96485,0 7.81576,0.227865 11.55273,0.683594 3.73698,0.455729 7.38281,1.435547 10.9375,2.939453 4.51172,1.914063 8.0892,4.739583 10.73243,8.476562 2.64323,3.691399 3.96484,8.043619 3.96484,13.056639 0,6.47136 -2.00521,11.87175 -6.01562,16.20118 -3.96485,4.28385 -7.72461,7.47396 -11.2793,9.57031 v 0.3418 c 6.24349,7.29167 13.07942,14.8112 20.50781,22.55859 7.47396,7.74739 11.48438,11.91731 12.03125,12.50976 z m 27.82227,5.46875 h -11.2793 c 0.0456,-2.73437 0.11396,-7.61067 0.20508,-14.6289 0.0911,-7.01823 0.13672,-17.08985 0.13672,-30.21485 0,-5.19531 -0.0228,-12.00846 -0.0684,-20.43945 -0.0456,-8.43099 -0.13675,-17.180989 -0.27344,-26.250001 h 11.2793 c -0.0911,6.516927 -0.18229,14.104812 -0.27344,22.763671 -0.0456,8.61329 -0.0684,15.6543 -0.0684,21.12305 0,13.85417 0.0456,24.58659 0.13672,32.19727 0.0911,7.5651 0.15951,12.71484 0.20508,15.44921 z m 76.08398,-25.77148 c 0,4.69401 -1.11654,8.81836 -3.34961,12.37305 -2.1875,3.50911 -5.14974,6.35742 -8.88672,8.54492 -3.41797,2.00521 -7.33724,3.5319 -11.75781,4.58008 -4.42057,1.0026 -9.31966,1.5039 -14.69727,1.5039 -2.91667,0 -5.94726,-0.0911 -9.09179,-0.27343 -3.09896,-0.18229 -4.89909,-0.29623 -5.40039,-0.3418 l -0.54688,-9.84375 c 0.63802,0.0911 2.41536,0.27344 5.33203,0.54687 2.91667,0.22787 6.35742,0.3418 10.32227,0.3418 2.41537,0 5.53711,-0.31901 9.36523,-0.95703 3.82813,-0.63802 6.76758,-1.45833 8.81836,-2.46094 2.68881,-1.32161 4.73959,-2.91666 6.15235,-4.78515 1.45833,-1.86849 2.1875,-4.23829 2.1875,-7.10938 0,-3.05339 -0.72917,-5.62826 -2.1875,-7.72461 -1.41276,-2.14193 -3.78255,-4.19271 -7.10938,-6.15234 -2.14193,-1.27604 -4.92187,-2.71159 -8.33984,-4.30664 -3.41797,-1.59505 -6.49415,-3.23568 -9.22852,-4.92188 -4.64843,-2.82552 -7.97526,-5.90169 -9.98047,-9.22851 -1.95963,-3.3724 -2.93945,-7.10938 -2.93945,-11.21094 0,-4.19271 0.88867,-7.81576 2.66602,-10.869149 1.82291,-3.09895 4.16992,-5.742183 7.04101,-7.929683 2.91667,-2.1875 6.47135,-3.828125 10.66406,-4.921875 4.23829,-1.09375 8.9323,-1.640625 14.08204,-1.640625 2.82552,0 5.67383,0.09115 8.54492,0.273437 2.91667,0.136719 4.58008,0.227865 4.99023,0.273438 l 0.95703,9.912108 c -0.41015,-0.0456 -2.07356,-0.20508 -4.99023,-0.47851 -2.91667,-0.273442 -6.51693,-0.410161 -10.80078,-0.410161 -2.55209,0 -5.19532,0.296224 -7.92969,0.888671 -2.6888,0.54688 -5.05859,1.41276 -7.10938,2.59766 -1.82291,1.04817 -3.37239,2.50651 -4.64843,4.374999 -1.27605,1.86849 -1.91407,4.05599 -1.91407,6.5625 0,2.23307 0.66081,4.39779 1.98243,6.49414 1.36719,2.05078 3.89648,4.16992 7.58789,6.35742 1.86849,1.13933 4.32942,2.46094 7.38281,3.96485 3.09896,1.45833 6.12956,3.05338 9.0918,4.78515 4.55729,2.68881 7.97525,5.78777 10.2539,9.29688 2.32422,3.46354 3.48633,7.42838 3.48633,11.89453 z m 81.41602,-56.054689 c -0.72917,0 -3.78255,-0.0228 -9.16016,-0.0684 -5.37761,-0.0456 -13.51237,-0.0684 -24.4043,-0.0684 -0.0911,9.342449 -0.1595,16.429039 -0.20507,21.259769 -0.0456,4.83073 -0.0684,11.41601 -0.0684,19.75586 0,8.02083 0.0228,16.17839 0.0684,24.47266 0.0911,8.24869 0.1595,13.74023 0.20507,16.4746 h -11.27929 c 0.0911,-2.73437 0.1595,-8.31705 0.20507,-16.74804 0.0911,-8.43099 0.13672,-16.67969 0.13672,-24.7461 v -18.86718 c 0,-4.69401 -0.0684,-11.89454 -0.20507,-21.601569 -9.70703,-0.0456 -17.59115,-0.0228 -23.65235,0.0684 -6.01563,0.0456 -9.31966,0.0684 -9.91211,0.0684 v -9.501954 c 4.69401,0 10.39063,0.02279 17.08985,0.06836 6.74479,0.04557 13.92252,0.06836 21.5332,0.06836 11.02865,0 20.23438,-0.02279 27.61719,-0.06836 7.42838,-0.04557 11.4388,-0.06836 12.03125,-0.06836 z m 83.125,78.203129 -10.66407,5.46875 c -0.18229,-0.50131 -1.61783,-3.89649 -4.30664,-10.18555 -2.64323,-6.28906 -6.15234,-14.37825 -10.52734,-24.26758 h -40.87891 c -4.78515,10.61849 -8.47656,18.84441 -11.07422,24.67774 -2.59765,5.83333 -4.0332,9.0918 -4.30664,9.77539 l -9.16015,-4.92188 c 1.18489,-2.36979 6.06119,-12.80598 14.6289,-31.30859 8.61329,-18.54818 17.54558,-38.0306 26.79688,-58.44727 h 8.88672 c 9.11458,20.41667 18.06966,40.19531 26.86523,59.33594 8.79557,19.14063 13.37565,29.09831 13.74024,29.87305 z m -29.39453,-37.73438 c -2.46094,-5.55989 -5.0586,-11.37044 -7.79297,-17.43164 -2.73438,-6.06119 -5.60547,-12.39583 -8.61328,-19.003909 h -0.27344 c -2.32422,5.013029 -5.12696,11.188159 -8.40821,18.525399 -3.28125,7.29167 -5.99283,13.26172 -8.13476,17.91015 l 0.0684,0.0684 h 33.08594 z M 914.47223,84.553739 c -0.0911,7.154947 -0.18229,15.335282 -0.27344,24.541021 -0.0456,9.20573 -0.0684,15.83659 -0.0684,19.89258 0,12.94271 0.0456,23.24218 0.13672,30.89843 0.0911,7.61068 0.13672,11.66667 0.13672,12.16797 l -9.0918,4.44336 c -13.76302,-18.59375 -26.63737,-35.36458 -38.62304,-50.3125 -11.94011,-14.99349 -18.8444,-23.65234 -20.71289,-25.97657 l -0.13672,0.0684 c 0,12.21355 0.0684,27.22983 0.20507,45.04884 0.18229,17.77343 0.29623,28.02734 0.3418,30.76171 h -10.66406 c 0.0456,-1.13932 0.11396,-5.19531 0.20508,-12.16796 0.0911,-6.97266 0.13672,-16.67969 0.13672,-29.1211 0,-4.96745 -0.0228,-11.55273 -0.0684,-19.75586 -0.0456,-8.24869 -0.13675,-16.975909 -0.27344,-26.181641 l 10.39062,-4.921875 c 0.82031,1.048177 7.79297,9.912107 20.91797,26.591796 13.17057,16.67969 25.56641,32.17449 37.1875,46.48438 l 0.13672,-0.0684 c 0,-7.01823 -0.0911,-18.82161 -0.27344,-35.41016 -0.18229,-16.63411 -0.27343,-28.961588 -0.27343,-36.982421 z"
     id="text1"
     aria-label="PRISTANISHE"
     sodipodi:nodetypes="scccccccsscsscccssscccsccsscccscccssccccccccscccscccsccccsscsssccsccccccccssscccscscscccsccccssccsccsccscccscccssccsscccccscscssccccsscccccsccccccccscccccsccscccccccccscccccccccssccccccccc" />
</svg>
